PathFileType	4	(X/Y/Z)	TVC_9_Cal_03_0_static_RCNL2025.trc
DataRate	CameraRate	NumFrames	NumMarkers	Units	OrigDataRate	OrigDataStartFrame	OrigNumFrames
100	100	9	27	mm	100	98	260
Frame#	Time	R_Shoulder			L_Shoulder			C7			J_Notch			R_Elbow			L_Elbow			R_Wrist			L_Wrist			R_Asis			L_Asis			R_Psis			L_Psis			Sacral			Thoracic			Sternum			R_Thigh_Lateral			R_Knee_Lateral			R_Shank_Lateral			R_Ankle_Lateral			R_Heel			R_Toe			L_Thigh_Lateral			L_Knee_Lateral			L_Shank_Lateral			L_Ankle_Lateral			L_Heel			L_Toe		
		X1	Y1	Z1	X2	Y2	Z2	X3	Y3	Z3	X4	Y4	Z4	X5	Y5	Z5	X6	Y6	Z6	X7	Y7	Z7	X8	Y8	Z8	X9	Y9	Z9	X10	Y10	Z10	X11	Y11	Z11	X12	Y12	Z12	X13	Y13	Z13	X14	Y14	Z14	X15	Y15	Z15	X16	Y16	Z16	X17	Y17	Z17	X18	Y18	Z18	X19	Y19	Z19	X20	Y20	Z20	X21	Y21	Z21	X22	Y22	Z22	X23	Y23	Z23	X24	Y24	Z24	X25	Y25	Z25	X26	Y26	Z26	X27	Y27	Z27
98	0.97000000	-189.092636	1390.599121	-115.915176	-307.358368	1363.941162	-490.380249	-309.935974	1445.919922	-298.978516	-158.707474	1341.045410	-318.398743	-203.356781	1111.581665	62.936508	-303.795563	1041.271484	-597.136719	-142.996552	872.681702	48.284341	-235.574898	806.225464	-566.120911	-168.849380	937.462341	-128.085007	-234.640106	935.523193	-431.793945	-384.496704	952.640381	-191.523239	-402.552765	949.941162	-288.157410	-393.524734	951.290771	-239.840324	-399.629303	1168.372559	-251.721451	-106.979431	1150.520142	-316.887543	-250.558640	538.893616	-52.423592	-290.728699	442.914398	-113.403831	-269.332520	302.094666	-69.209045	-301.263031	74.136375	-139.934555	-355.193176	60.460873	-201.422302	-171.969406	48.921486	-179.339340	-236.729034	569.638855	-463.769287	-253.747635	419.999054	-411.149994	-274.249451	304.289337	-455.310791	-308.616425	80.015053	-378.926941	-353.963593	53.670929	-315.520264	-167.914719	44.344563	-372.216980
99	0.98000000	-189.143021	1390.769165	-116.000214	-307.439941	1363.886108	-490.378326	-310.057373	1445.929932	-299.038818	-158.782578	1341.098633	-318.476990	-203.394531	1111.710938	62.919151	-303.852570	1041.099365	-597.067749	-143.057419	872.725677	48.092076	-235.602150	806.198486	-565.935486	-168.823303	937.489929	-128.058868	-234.734375	935.510010	-431.661499	-384.478363	952.733887	-191.313904	-402.618561	949.918945	-288.122559	-393.548462	951.326416	-239.718231	-399.623901	1168.403076	-251.609238	-106.848129	1150.616089	-316.975311	-250.781769	538.992493	-52.443851	-290.824463	442.884308	-113.329872	-269.341217	302.156189	-69.263016	-301.242828	74.102547	-139.975922	-355.233154	60.448856	-201.448273	-171.969147	48.929600	-179.324875	-236.776993	569.670593	-463.819916	-253.808151	420.022522	-411.139008	-274.336121	304.187561	-455.250702	-308.659271	79.983284	-378.949127	-353.925110	53.681072	-315.520599	-167.953934	44.335880	-372.187683
100	0.99000000	-189.162506	1390.774292	-115.915588	-307.538635	1363.928101	-490.445129	-310.111084	1445.990234	-299.048248	-158.872131	1341.169922	-318.531647	-203.548203	1111.858154	62.907734	-303.488678	1041.194092	-596.690430	-143.134773	872.842896	47.979839	-235.620461	806.084839	-565.747681	-168.799591	937.519775	-128.143845	-234.915466	935.462280	-431.670746	-384.503082	952.794434	-191.386032	-402.721100	949.995850	-288.059784	-393.612091	951.395142	-239.722908	-399.735199	1168.490967	-251.638824	-106.806389	1150.757080	-316.947357	-250.887650	538.960876	-52.465378	-290.860291	442.878754	-113.313766	-269.307007	302.080017	-69.274712	-301.223114	74.096527	-139.956940	-355.171661	60.492626	-201.456039	-171.962296	48.915150	-179.326874	-236.889923	569.720398	-463.804962	-253.837738	420.065674	-411.134705	-274.327087	304.228668	-455.209991	-308.675476	80.024406	-378.991669	-353.922943	53.683819	-315.520569	-168.014877	44.433395	-372.191406
101	1.00000000	-189.166565	1390.923950	-115.926491	-307.653198	1363.862549	-490.440979	-310.150238	1445.992432	-299.113373	-158.877640	1341.200073	-318.588440	-203.552444	1111.989136	62.899754	-303.439728	1041.186279	-596.628357	-143.208862	872.973328	47.914329	-235.669426	806.005829	-565.582642	-168.790176	937.542542	-128.116196	-234.960419	935.568176	-431.589539	-384.661713	952.991699	-191.080292	-402.833099	950.030151	-287.810242	-393.747406	951.510925	-239.445267	-399.772247	1168.517456	-251.619812	-106.797188	1150.791260	-316.990387	-250.907608	539.032837	-52.458790	-290.844391	442.861694	-113.288956	-269.308350	302.092133	-69.234215	-301.222778	74.098343	-139.953049	-355.154724	60.478928	-201.465424	-171.976578	48.958183	-179.308075	-237.038635	569.732544	-463.812134	-253.874252	420.082642	-411.152283	-274.103119	304.332489	-455.151611	-308.810028	79.986511	-378.762573	-354.019043	53.671741	-315.562653	-168.021500	44.493881	-372.177582
102	1.01000000	-189.277649	1390.994263	-115.935219	-307.738495	1363.827515	-490.443939	-310.127502	1445.940552	-299.129303	-158.938034	1341.211914	-318.646301	-203.595764	1112.125366	62.962708	-303.489227	1040.929199	-596.629089	-143.285866	873.190887	47.815939	-235.612289	805.911407	-565.430695	-168.878555	937.570251	-128.138809	-235.093292	935.635803	-431.571899	-384.728882	953.072449	-190.804825	-402.936462	950.052063	-287.725403	-393.832672	951.562256	-239.265114	-399.777130	1168.517822	-251.587311	-106.889320	1150.837158	-317.087372	-250.818130	539.020691	-52.379040	-290.821259	442.840332	-113.259674	-269.352753	302.036377	-69.190765	-301.145508	74.084663	-139.927795	-355.169617	60.485096	-201.444504	-171.987610	48.975098	-179.301224	-237.134598	569.746582	-463.702179	-253.865906	420.084503	-411.169128	-274.063812	304.260529	-455.064117	-308.811371	80.037476	-378.995697	-354.049500	53.621597	-315.515381	-168.113541	44.583523	-372.142181
103	1.02000000	-189.185471	1391.091675	-116.038269	-307.713074	1363.733154	-490.432465	-310.196960	1445.876831	-299.230316	-158.930069	1341.203369	-318.691437	-203.765869	1112.230469	63.014469	-303.505981	1040.854858	-596.555847	-143.357841	873.256805	47.705550	-235.651787	805.858215	-565.344391	-168.848587	937.529968	-128.241516	-235.320007	935.596741	-431.529236	-384.816925	953.014099	-190.849121	-403.073395	949.963135	-287.575592	-393.945160	951.488617	-239.212357	-399.901031	1168.472778	-251.511032	-106.860588	1150.989136	-317.111084	-250.483597	538.799622	-52.408230	-290.738586	442.827179	-113.245575	-269.373505	301.993622	-69.161324	-301.192078	74.068733	-139.975906	-355.180420	60.423939	-201.435471	-171.995438	49.004715	-179.314438	-237.039276	569.749390	-463.684814	-253.802856	420.044495	-411.181854	-273.841736	303.537781	-455.356476	-308.827789	80.023499	-379.001892	-354.013031	53.632690	-315.443146	-168.194550	44.649010	-372.101013
104	1.03000000	-189.247726	1391.036743	-116.004379	-307.771454	1363.661743	-490.476959	-310.236755	1445.912964	-299.279724	-158.920380	1341.147827	-318.693329	-203.744202	1112.347656	63.095814	-303.516632	1040.817017	-596.513367	-143.434425	873.358246	47.575836	-235.659126	805.792694	-565.210541	-168.890549	937.532654	-128.251450	-235.511414	935.500122	-431.562592	-384.780212	952.906189	-190.787323	-403.162506	949.956543	-287.482788	-393.971359	951.431366	-239.135056	-399.958221	1168.459717	-251.486313	-106.839378	1151.000732	-317.112518	-250.250290	538.842957	-52.300175	-290.695282	442.862762	-113.228973	-269.314209	302.061157	-69.189575	-300.893921	73.889412	-140.292465	-355.242981	60.461887	-201.430969	-171.987442	48.993443	-179.319778	-236.986343	569.724365	-463.684814	-253.663635	420.171875	-411.326752	-273.748596	303.865448	-454.932068	-308.834351	80.031815	-378.945648	-354.093689	53.601036	-315.492188	-168.229858	44.691719	-372.038788
105	1.04000000	-189.120621	1391.116211	-116.278816	-307.725891	1363.587036	-490.565826	-310.260468	1445.864258	-299.316345	-158.925797	1341.093384	-318.727692	-203.752335	1112.471558	63.110085	-303.586121	1040.804688	-596.465149	-143.478432	873.500610	47.487444	-235.625679	805.718719	-565.060608	-168.964005	937.498596	-128.254288	-235.700836	935.463562	-431.537354	-384.857513	952.900330	-190.834106	-403.296906	949.850708	-287.428528	-394.077209	951.375519	-239.131317	-399.963043	1168.481567	-251.437164	-106.861771	1150.921997	-317.049347	-250.101944	538.788940	-52.426678	-290.665436	442.875519	-113.194977	-269.268127	302.016846	-69.259102	-301.119629	74.030159	-140.012711	-355.197327	60.354488	-201.422165	-171.938217	48.988766	-179.379135	-236.809891	569.715027	-463.759766	-253.506851	419.943542	-411.224121	-273.772430	304.215302	-455.146362	-308.898560	80.015282	-378.666412	-354.069977	53.591599	-315.540924	-168.224869	44.672482	-372.022919
106	1.05000000	-189.264832	1391.153564	-116.136978	-307.718903	1363.515625	-490.590515	-310.354584	1445.809326	-299.211792	-158.910675	1341.007080	-318.763672	-203.744095	1112.628296	63.179085	-303.589111	1040.744751	-596.479614	-143.543648	873.660278	47.408762	-235.582314	805.640808	-564.918976	-168.820419	937.605896	-128.214249	-235.884995	935.455383	-431.492889	-384.970490	952.965088	-190.775345	-403.379700	949.794556	-287.310425	-394.175095	951.379822	-239.042885	-400.049011	1168.476685	-251.398407	-106.875542	1150.915405	-317.037537	-250.132507	538.731812	-52.460205	-290.639252	442.848907	-113.157005	-269.290497	302.010101	-69.199997	-301.220459	74.092537	-139.949326	-355.190369	60.350689	-201.491684	-171.966385	48.938980	-179.449097	-236.710007	569.684326	-463.810608	-253.360306	419.914062	-411.243591	-273.674896	303.495453	-455.462219	-308.839508	79.982971	-378.686157	-354.132721	53.698895	-315.553955	-168.156921	44.697510	-372.038818
